<svg xmlns="http://www.w3.org/2000/svg" xmlns:xlink="http://www.w3.org/1999/xlink" viewBox="0 0 404.13 336.27"><defs><style>.cls-1{fill:none;}.cls-2{fill:#de7137;}.cls-3{clip-path:url(#clip-path);}.cls-4{fill:#4bb27f;}.cls-5{fill:#a4cb7d;}.cls-6{fill:#80b068;}.cls-7{fill:#588b3a;}.cls-8{fill:#446830;}.cls-9{fill:#2c3e1e;}.cls-10,.cls-14,.cls-15{font-size:60.31px;font-family:EthnocentricRg-Bold, Ethnocentric;font-weight:700;}.cls-10{fill:#fff;stroke-width:2.92px;}.cls-10,.cls-15{stroke:#de7137;stroke-miterlimit:10;}.cls-11{letter-spacing:-0.16em;}.cls-12{letter-spacing:-0.1em;}.cls-13{letter-spacing:-0.03em;}</style><clipPath id="clip-path"><polygon class="cls-1" points="233.43 123.4 233.22 123.08 224.5 110.26 217.84 120.06 201.44 95.95 185.66 119.13 179.63 110.26 170.92 123.08 170.7 123.4 170.82 123.63 202.07 185.34 233.31 123.63 233.43 123.4"/></clipPath></defs><g id="Calque_2" data-name="Calque 2"><g id="Calque_1-2" data-name="Calque 1"><path class="cls-2" d="M207.37,190.84c5.68,0,18.25.65,21,6.62a4.4,4.4,0,0,1-.93,4.39c-5.44,5.55-17,6.28-24.45,6.5a72.33,72.33,0,0,1-12.45-1c-4.28-.89-8.45-1.73-12.11-4.54-5.59-5,.53-9.1,5.54-10.33A47.26,47.26,0,0,1,196.23,191a.41.41,0,0,1,.07.82,61,61,0,0,0-11.62,2.9c-7.76,3.14-6.7,5.45.73,7.72a64.87,64.87,0,0,0,17.52,2c6.76-.14,13.8-.58,20-3.37a5,5,0,0,0,2.45-2,.83.83,0,0,0,0-.54c-1-2.15-4.08-3.14-6.39-4a64.59,64.59,0,0,0-11.69-2.61.51.51,0,0,1,.06-1Z"/><path class="cls-2" d="M209.91,187.17c11.05.22,22.63,1,32.63,6.5,4.16,2.35,7.15,7.17,3.52,11.66-2.73,3.31-6.36,4.87-10.12,6.33-17.55,5.94-37.17,6.06-55.31,3.1-7-1.41-25.21-5.36-23.3-15.32,3.42-10.35,27.28-12,36.59-12.09a.4.4,0,0,1,.05.79,109.87,109.87,0,0,0-21.23,4.36c-24.57,8.42-5.6,15.59,8.67,17.83a134.83,134.83,0,0,0,42.81-.18c15.44-2.72,31.48-9.78,6.9-17.82a113.38,113.38,0,0,0-21.26-4.12.52.52,0,0,1,0-1Z"/><path class="cls-2" d="M232,123.49a.38.38,0,0,0,0,.36l-.06-.08-.28-.41c-2.25-3.37-6.08-8.9-8.37-12.31h2.3L219,120.84a1.39,1.39,0,0,1-1.93.37,1.45,1.45,0,0,1-.37-.37L198.18,98.16h6.51l-17.87,21.75a1.41,1.41,0,0,1-2.31,0l-6-8.86h2.31l-8.94,13.13.09-1.41,30.47,62.4h-.68L217,154l11.42-23.4c1-2,2.62-5.31,3.57-7.32l.12-.24a.65.65,0,0,0,0,.48Zm2.78-.18a2.71,2.71,0,0,1-.4,1.2l-.75,1.44c-.64,1.2-2.37,4.51-3,5.76l-12.1,23.06-16.13,30.75a.39.39,0,0,1-.68,0L169.46,124a1.37,1.37,0,0,1,.08-1.4s8.94-13.13,8.94-13.15a1.41,1.41,0,0,1,2.31,0l6,8.86h-2.31l13.67-24.61a3.76,3.76,0,0,1,6.52,0L219,119.27h-2.3l6.66-9.79a1.39,1.39,0,0,1,1.93-.37,1.3,1.3,0,0,1,.37.37l6.7,9.85c.35.52,1.34,2,1.68,2.46a4.42,4.42,0,0,1,.79,1.52Z"/><path class="cls-2" d="M189.72,106.82C175.24,100.43,165.26,85,168.25,69c2-12.26,10-23.62,21.61-28.62,21.6-9.09,43.24,7.76,46.15,29.57A34.07,34.07,0,0,1,231,93a35.6,35.6,0,0,1-17.29,14.15l-.2-.36c10.49-8,17.55-22.28,13.91-35.25C224.59,60,214.62,48.92,202.4,48.87c-12.46-.23-22.29,10.4-25.52,21.92-4,13.16,3,26.57,13.14,35.53l-.3.5Z"/><path class="cls-2" d="M261.8,86.8,203.17,197.32a1.34,1.34,0,0,1-1.81.55c-10.88-19.1-36-67.87-46.15-86.62-5.05-9.57-10.19-19.11-15.16-28.72a3.55,3.55,0,0,1,.29-3.73c-.07-.24,56.18-75.77,56.18-76a6.93,6.93,0,0,1,11.1,0l56.21,75.94a3.69,3.69,0,0,1,.25,4c-.67,1.26-1.65,2.84-2.28,4.08Zm-6.6-3.28c.73-1.28,1.43-3.09,2.11-4.4l.39,4.19L196.52,11.6h11.1L146.38,83.26l.45-3.94c4.79,9.68,9.41,19.45,14.12,29.17l42.22,87.63h-2.36L255.2,83.52Z"/><path class="cls-2" d="M189.87,106.32c-12.24-5.59-18.36-18.81-18.05-30.34.43-15.47,12.59-32.89,30.25-32.89S231.88,60.51,232.31,76c.33,11.8-6.07,25.35-18.66,30.7C202,111.64,191.23,106.93,189.87,106.32Z"/><g class="cls-3"><rect class="cls-4" x="156.54" y="94.05" width="96.33" height="38.97" rx="10.67"/><path class="cls-5" d="M160.31,131.41l8.89,3.73,8.89-8.18,10.82,4.09,10.4-2.44,6.67,1.94L216.73,127l6.09,1.65,7.39-1.65,12.9,4.45,5.74,12.9s-14.34,14.27-15.42,14.63-34.27,1-34.27,1-25.66-1.86-27.81-2.79-14.7-21.37-14.7-21.37Z"/><path class="cls-6" d="M160.05,134.92l7-2.72,21.93,1.93,15.92-5.52,9.46,2.8L221,129l8.6,2.73,4.88-.86,10.75,7.17,4,21.72-10,7.81s-26.53,3.52-28.6,3.59-41.3-3.8-41.51-3.59-18.79-1.93-18.79-1.93l4.45-28.39Z"/><path class="cls-7" d="M150.4,135.21l6.25,2,14.84-6.79,23.5,6.79,18.22-10.63,11.89,5.9,19.28-7.15,19.86,25.55L241,152.54l-50.57,13.58-29-4.38s-10.63-12-11-12.06-3.75-7.33-3.75-7.33Z"/><path class="cls-8" d="M158.81,151.2l18.11-8.45,13.8,8.45,16.7-5.78,7.67,1.55,9-4.51,14.15,4.72,2.54,19.44s-15.14,3.52-16.27,3.73S192,168.87,190.72,169s-25.91-3.39-25.91-3.39l-6-7.25Z"/><path class="cls-9" d="M162.56,148.29h0a3.1,3.1,0,0,1,1.65.21l24.6,10.12a3.18,3.18,0,0,0,2.19.09l22.41-7.16a3.23,3.23,0,0,1,2.31.14L227,156.85a3.24,3.24,0,0,0,2.37.12l1.07-.37a3.2,3.2,0,0,1,4.23,2.94l.32,10.74a3.18,3.18,0,0,1-.42,1.68c-1.67,2.94-7.5,13.16-7.82,13.4s-20.9,5.1-24.31,5.9a3.16,3.16,0,0,1-1,.07c-2.88-.21-17.57-1.34-20.45-2.56s-15.49-17.15-17.77-20.05a3.21,3.21,0,0,1-.53-1c-.78-2.42-3.86-12.11-3.86-12.6,0-.34.6-2.69,1.08-4.48A3.19,3.19,0,0,1,162.56,148.29Z"/></g><path d="M232.59,123.45c-.05,0-.08.06-.08.1l-.06-.09-.28-.41c-2.25-3.36-6.08-8.9-8.37-12.31h1.4l-6.66,9.79a.85.85,0,0,1-1.18.23.8.8,0,0,1-.22-.23L199.45,97.3h4l-17.06,22.31a.86.86,0,0,1-1.41,0l-6-8.87h1.41l-8.94,13.13.06-.86,30.82,62.23h-.42l15.41-31.12,11.55-23.33c1-2,2.65-5.29,3.61-7.29l.12-.25a.2.2,0,0,0,0,.2Zm1.69-.11a2.49,2.49,0,0,1-.34.92c-.16.29-.58,1.15-.75,1.45-.62,1.21-2.34,4.52-3,5.78l-12,23.12-15.95,30.84a.24.24,0,0,1-.32.1c-.2.1-31.89-61.77-32-61.77a.88.88,0,0,1,.05-.86l8.94-13.13a.86.86,0,0,1,1.41,0l6,8.86H185L199.45,94.6a2.33,2.33,0,0,1,4,0l15.11,25h-1.4l6.66-9.79a.85.85,0,0,1,1.4,0l4.47,6.56,3.35,4.93a10.94,10.94,0,0,1,1.26,2.06Z"/><path d="M189.76,106.76c-13.83-6.71-23.52-22-20.41-37.58,2.09-11.8,9.82-22.76,21-27.56,25.18-10.54,49.29,15.44,44.24,40.26a35.65,35.65,0,0,1-20.9,25.19l-.16-.27c11.22-8,18.39-22,15-35.5-2.8-12.18-13.23-23.77-26.13-23.84-13.09-.27-23.51,10.95-26.65,23.09-3.37,11.62,1.85,23.86,10.27,32.2a42.47,42.47,0,0,0,3.94,3.63l-.23.38Z"/><path d="M209.9,187.39c10.94.47,22.45,1.39,32.23,6.91,10.43,6.76,1.7,13.83-6.49,16.52-17.36,5.78-36.9,5.9-54.85,3-6.59-1.29-24.36-5-22.71-14.22,3.37-9.84,26.77-11.81,35.85-12.11a.23.23,0,0,1,0,.46,104.63,104.63,0,0,0-21.38,4c-25.49,8.41-6.75,17,8.67,19.29a133.15,133.15,0,0,0,43.14-.17c16.61-2.77,32.34-11.38,6.89-19.32A106.92,106.92,0,0,0,209.87,188a.3.3,0,0,1,0-.6Z"/><path d="M207.36,191.08c6.1.29,12.55.77,18,4,2.17,1.27,3.51,4.07,1.49,6.24-5.28,5.23-16.74,5.89-23.86,6.09a71.58,71.58,0,0,1-12.31-.93c-4.12-.81-8.29-1.64-11.77-4.27-5.16-4.33,1.06-8.07,5.23-9.19a50.22,50.22,0,0,1,12.13-1.82.22.22,0,0,1,.23.21.21.21,0,0,1-.19.22,55.25,55.25,0,0,0-11.77,2.57c-8.54,3.08-7.46,6.62.65,9a63.71,63.71,0,0,0,17.78,2.1,59.06,59.06,0,0,0,17.7-2.46c9.07-3.09,5.73-6.74-1.48-9a59.46,59.46,0,0,0-11.84-2.29.27.27,0,0,1,0-.53Z"/><path d="M261,86.41,202.89,197.17a1,1,0,0,1-1.38.43c-10.62-19.14-35.61-68-45.62-86.68-5-9.59-10.09-19.15-15-28.77a2.72,2.72,0,0,1,.24-2.87C141,79.09,197.85,4,197.83,3.82a5.33,5.33,0,0,1,8.47,0c.08.05,56.69,75.33,56.76,75.38a2.87,2.87,0,0,1,.22,3.1c-.67,1.27-1.63,2.86-2.26,4.11Zm-5-2.5c.73-1.27,1.44-3.07,2.13-4.36l.3,3.19L197.83,10.56h8.47L145.68,82.71l.35-3c4.81,9.67,9.49,19.41,14.24,29.12,9,18.56,33.28,68.26,42.62,87.44h-1.8L256,83.91Z"/><text class="cls-10" transform="translate(1.46 268.36)">O</text><text class="cls-10" transform="translate(66.77 268.36) scale(1.05 1)">-</text><text class="cls-10" transform="translate(97.23 268.36)">S<tspan class="cls-11" x="59.04" y="0">P</tspan><tspan class="cls-12" x="110.06" y="0">A</tspan><tspan class="cls-13" x="174.1" y="0">w</tspan><tspan x="249.48" y="0">N</tspan></text><text class="cls-14" transform="translate(1.46 268.36)">O</text><text class="cls-14" transform="translate(66.77 268.36) scale(1.05 1)">-</text><text class="cls-14" transform="translate(97.23 268.36)">S<tspan class="cls-11" x="59.04" y="0">P</tspan><tspan class="cls-12" x="110.06" y="0">A</tspan><tspan class="cls-13" x="174.1" y="0">w</tspan><tspan x="249.48" y="0">N</tspan></text><text class="cls-15" transform="translate(108.7 320.39) scale(1.05 1)">CUP</text></g></g></svg>