<svg xmlns="http://www.w3.org/2000/svg" xmlns:xlink="http://www.w3.org/1999/xlink" width="38" height="38" viewBox="0 0 38 38">
  <defs>
    <clipPath id="clip-path">
      <circle id="Ellipse_4" data-name="Ellipse 4" cx="19" cy="19" r="19" transform="translate(382.514 20.514)" fill="#fff"/>
    </clipPath>
  </defs>
  <g id="Groupe_de_masques_1" data-name="Groupe de masques 1" transform="translate(-382.514 -20.514)" clip-path="url(#clip-path)">
    <g id="settings_black_24dp" transform="translate(383 21)">
      <path id="Tracé_6" data-name="Tracé 6" d="M-.486-.486h38v38h-38Z" fill="none"/>
      <path id="Tracé_7" data-name="Tracé 7" d="M28.849,19.928c.062-.494,1-1.475,1-2s-.938-1.506-1-2l4-2c.293-.231.185-.661,0-1l-3-5c-.139-.247-.722-1-1-1-.093,0,.077-.031,0,0l-4,2a16.125,16.125,0,0,0-3-2v-4c-.046-.37-.614,0-1,0h-6c-.386,0-.954-.37-1,0v4a16.926,16.926,0,0,0-3,2l-4-2c-.093-.031.093,0,0,0-.262,0-.861.753-1,1l-3,5c-.2.339-.293.769,0,1l4,2c-.062.494-1,1.491-1,2s.938,1.506,1,2l-4,2c-.293.231-.185.661,0,1l3,5c.139.247.722,1,1,1,.093,0-.077.031,0,0l4-2a16.125,16.125,0,0,0,3,2v4c.046.37.614,0,1,0h6c.386,0,.954.37,1,0v-4a16.926,16.926,0,0,0,3-2l4,2c.093.031-.093,0,0,0,.262,0,.861-.753,1-1l3-5c.185-.339.293-.769,0-1Zm-3-3a5.341,5.341,0,0,1,0,1,7.133,7.133,0,0,1,0,1v2l2,1,1,1-1,2-2-1h-1l-2,1a8.647,8.647,0,0,1-2,1l-1,1-1,1v2h-2v-2l-1-1-1-1a8.98,8.98,0,0,1-2-1l-2-1h-1l-2,1-1-2,1-1,2-1v-2a7.094,7.094,0,0,1,0-1,7.114,7.114,0,0,1,0-1v-2l-2-1-1-1,1-2,2,1h1l2-1a8.647,8.647,0,0,1,2-1l1-1,1-1v-2h2v2l1,1,1,1a8.979,8.979,0,0,1,2,1l2,1h1l2-1,1,2-1,1-2,1Zm-8-5a5.881,5.881,0,0,0-6,6,5.881,5.881,0,0,0,6,6,5.881,5.881,0,0,0,6-6A5.881,5.881,0,0,0,17.849,11.928Zm0,9a3,3,0,1,1,3-3A2.95,2.95,0,0,1,17.849,20.928Z" transform="translate(0.665 0.586)" fill="#191919"/>
    </g>
  </g>
</svg>
