<svg xmlns="http://www.w3.org/2000/svg" width="20.43" height="24.088" viewBox="0 0 20.43 24.088">
  <g id="arrowFilter" transform="translate(-0.003 24.084) rotate(-90)">
    <g id="Calque_1" transform="translate(-0.003 0.003)">
      <rect id="Rectangle_24" width="21.444" height="3.997" rx="1.999" transform="translate(2.644 8.216)" fill="#191919"/>
      <path id="Tracé_8" d="M4.778,10.264l6.85-6.85a2,2,0,0,0,0-2.826h0A2,2,0,0,0,8.8.588L.676,8.712a2.011,2.011,0,0,0-.409.593,2,2,0,0,0,.315,2.417l8.125,8.125a2,2,0,0,0,2.826,0h0a2,2,0,0,0,0-2.826Z" transform="translate(0.003 -0.003)" fill="#191919"/>
    </g>
  </g>
</svg>
