<svg xmlns="http://www.w3.org/2000/svg" width="14.701" height="9.891" viewBox="0 0 14.701 9.891">
  <g id="downArrow" transform="translate(-359.245 -694.554)">
    <path id="Union_2" d="M8.668,11.483a.916.916,0,0,1-.08-.114l-6.5-7.919a1.078,1.078,0,0,1,0-1.314.67.67,0,0,1,1.079,0L9.214,9.5l6.048-7.367a.67.67,0,0,1,1.079,0,1.078,1.078,0,0,1,0,1.314l-6.5,7.922a.912.912,0,0,1-.077.11.7.7,0,0,1-.541.272H9.207A.7.7,0,0,1,8.668,11.483Z" transform="translate(357.381 692.691)" fill="#a3a3a3"/>
  </g>
</svg>
